<?xml version="1.0" standalone="no"?>
<!DOCTYPE svg PUBLIC "-//W3C//DTD SVG 20010904//EN"
 "http://www.w3.org/TR/2001/REC-SVG-20010904/DTD/svg10.dtd">
<svg version="1.0" xmlns="http://www.w3.org/2000/svg"
 width="512.000000pt" height="512.000000pt" viewBox="0 0 512.000000 512.000000"
 preserveAspectRatio="xMidYMid meet">
<metadata>
Created by potrace 1.14, written by Peter Selinger 2001-2017
</metadata>
<g transform="translate(0.000000,512.000000) scale(0.100000,-0.100000)"
fill="#000000" stroke="none">
<path d="M0 2560 l0 -2560 2560 0 2560 0 0 2560 0 2560 -2560 0 -2560 0 0
-2560z m3670 1998 c0 -7 40 -303 90 -657 49 -355 88 -646 87 -646 -11 -8 -222
-33 -228 -28 -4 5 -104 161 -223 348 -211 331 -218 341 -269 367 -62 32 -184
73 -282 94 -153 33 -407 27 -559 -12 -258 -67 -397 -279 -345 -526 18 -84 48
-138 114 -204 118 -118 250 -179 690 -315 422 -131 617 -212 789 -326 290
-193 428 -424 455 -758 24 -298 -38 -566 -177 -766 -100 -144 -280 -298 -451
-384 -140 -70 -375 -141 -577 -172 -158 -25 -716 -24 -894 1 -191 26 -524 108
-552 135 -10 9 -227 1079 -220 1086 3 3 52 5 108 5 l103 0 305 -414 306 -414
83 -13 c52 -9 154 -14 282 -13 366 2 583 62 720 199 74 74 112 150 132 264 35
203 -28 371 -182 488 -83 64 -256 145 -410 194 -812 255 -969 328 -1165 535
-106 113 -168 228 -212 394 -29 110 -36 393 -14 514 60 313 246 553 555 714
249 130 521 186 901 186 235 0 373 -16 558 -64 l75 -19 126 109 126 109 78 1
c55 0 77 -4 77 -12z"/>
</g>
</svg>
